<svg width="128" height="24" viewBox="0 0 128 24" fill="none" xmlns="http://www.w3.org/2000/svg">
<path d="M5.17045 18.1591C4.39015 18.1591 3.69318 18.0246 3.07955 17.7557C2.4697 17.4867 1.98674 17.1136 1.63068 16.6364C1.27841 16.1553 1.08902 15.5985 1.0625 14.9659H2.84659C2.86932 15.3106 2.98485 15.6098 3.19318 15.8636C3.4053 16.1136 3.68182 16.3068 4.02273 16.4432C4.36364 16.5795 4.74242 16.6477 5.15909 16.6477C5.61742 16.6477 6.02273 16.5682 6.375 16.4091C6.73106 16.25 7.00947 16.0284 7.21023 15.7443C7.41099 15.4564 7.51136 15.125 7.51136 14.75C7.51136 14.3598 7.41099 14.017 7.21023 13.7216C7.01326 13.4223 6.72349 13.1875 6.34091 13.017C5.96212 12.8466 5.50379 12.7614 4.96591 12.7614H3.98295V11.3295H4.96591C5.39773 11.3295 5.77652 11.2519 6.10227 11.0966C6.43182 10.9413 6.68939 10.7254 6.875 10.4489C7.06061 10.1686 7.15341 9.84091 7.15341 9.46591C7.15341 9.10606 7.07197 8.79356 6.90909 8.52841C6.75 8.25947 6.52273 8.04924 6.22727 7.89773C5.93561 7.74621 5.59091 7.67045 5.19318 7.67045C4.81439 7.67045 4.46023 7.74053 4.13068 7.88068C3.80492 8.01705 3.53977 8.21402 3.33523 8.47159C3.13068 8.72538 3.02083 9.0303 3.00568 9.38636H1.30682C1.32576 8.75758 1.51136 8.20455 1.86364 7.72727C2.2197 7.25 2.68939 6.87689 3.27273 6.60795C3.85606 6.33901 4.50379 6.20455 5.21591 6.20455C5.96212 6.20455 6.60606 6.35038 7.14773 6.64205C7.69318 6.92992 8.11364 7.31439 8.40909 7.79545C8.70833 8.27651 8.85606 8.80303 8.85227 9.375C8.85606 10.0265 8.67424 10.5795 8.30682 11.0341C7.94318 11.4886 7.45833 11.7936 6.85227 11.9489V12.0398C7.625 12.1572 8.22349 12.464 8.64773 12.9602C9.07576 13.4564 9.28788 14.072 9.28409 14.8068C9.28788 15.447 9.10985 16.0208 8.75 16.5284C8.39394 17.036 7.9072 17.4356 7.28977 17.7273C6.67235 18.0152 5.96591 18.1591 5.17045 18.1591ZM12.2301 18.108C11.9195 18.108 11.6525 17.9981 11.429 17.7784C11.2055 17.5549 11.0938 17.286 11.0938 16.9716C11.0938 16.661 11.2055 16.3958 11.429 16.1761C11.6525 15.9527 11.9195 15.8409 12.2301 15.8409C12.5407 15.8409 12.8078 15.9527 13.0312 16.1761C13.2547 16.3958 13.3665 16.661 13.3665 16.9716C13.3665 17.1799 13.3134 17.3712 13.2074 17.5455C13.1051 17.7159 12.9688 17.8523 12.7983 17.9545C12.6278 18.0568 12.4384 18.108 12.2301 18.108ZM19.2727 18.1591C18.5606 18.1591 17.9205 18.0227 17.3523 17.75C16.7879 17.4735 16.3371 17.0947 16 16.6136C15.6629 16.1326 15.483 15.5833 15.4602 14.9659H17.1648C17.2064 15.4659 17.428 15.8769 17.8295 16.1989C18.2311 16.5208 18.7121 16.6818 19.2727 16.6818C19.7197 16.6818 20.1155 16.5795 20.4602 16.375C20.8087 16.1667 21.0814 15.8807 21.2784 15.517C21.4792 15.1534 21.5795 14.7386 21.5795 14.2727C21.5795 13.7992 21.4773 13.3769 21.2727 13.0057C21.0682 12.6345 20.786 12.3428 20.4261 12.1307C20.0701 11.9186 19.661 11.8106 19.1989 11.8068C18.8466 11.8068 18.4924 11.8674 18.1364 11.9886C17.7803 12.1098 17.4924 12.2689 17.2727 12.4659L15.6648 12.2273L16.3182 6.36364H22.7159V7.86932H17.7784L17.4091 11.125H17.4773C17.7045 10.9053 18.0057 10.7216 18.3807 10.5739C18.7595 10.4261 19.1648 10.3523 19.5966 10.3523C20.3049 10.3523 20.9356 10.5208 21.4886 10.858C22.0455 11.1951 22.483 11.6553 22.8011 12.2386C23.1231 12.8182 23.2822 13.4848 23.2784 14.2386C23.2822 14.9924 23.1117 15.6648 22.767 16.2557C22.4261 16.8466 21.9527 17.3125 21.3466 17.6534C20.7443 17.9905 20.053 18.1591 19.2727 18.1591Z" fill="#667085"/>
<rect width="24" height="24" transform="translate(29)" fill="white"/>
<path d="M40.2826 3.4533C40.5131 2.98636 40.6284 2.75289 40.7848 2.6783C40.9209 2.6134 41.0791 2.6134 41.2152 2.6783C41.3716 2.75289 41.4869 2.98636 41.7174 3.4533L43.904 7.88327C43.9721 8.02112 44.0061 8.09004 44.0558 8.14356C44.0999 8.19094 44.1527 8.22933 44.2113 8.25661C44.2775 8.28741 44.3536 8.29852 44.5057 8.32076L49.397 9.03569C49.912 9.11098 50.1696 9.14862 50.2888 9.27442C50.3925 9.38388 50.4412 9.53428 50.4215 9.68376C50.3988 9.85556 50.2124 10.0372 49.8395 10.4004L46.3014 13.8464C46.1911 13.9538 46.136 14.0075 46.1004 14.0714C46.0689 14.128 46.0487 14.1902 46.0409 14.2545C46.0321 14.3271 46.0451 14.403 46.0711 14.5547L46.9059 19.4221C46.994 19.9355 47.038 20.1922 46.9553 20.3445C46.8833 20.477 46.7553 20.57 46.607 20.5975C46.4366 20.6291 46.2061 20.5078 45.7451 20.2654L41.3724 17.9658C41.2361 17.8942 41.168 17.8583 41.0962 17.8443C41.0327 17.8318 40.9673 17.8318 40.9038 17.8443C40.832 17.8583 40.7639 17.8942 40.6276 17.9658L36.2549 20.2654C35.7939 20.5078 35.5634 20.6291 35.393 20.5975C35.2447 20.57 35.1167 20.477 35.0447 20.3445C34.962 20.1922 35.006 19.9355 35.0941 19.4221L35.9289 14.5547C35.9549 14.403 35.9679 14.3271 35.9591 14.2545C35.9513 14.1902 35.9311 14.128 35.8996 14.0714C35.864 14.0075 35.8089 13.9538 35.6986 13.8464L32.1605 10.4004C31.7876 10.0372 31.6012 9.85556 31.5785 9.68376C31.5588 9.53428 31.6075 9.38388 31.7112 9.27442C31.8304 9.14862 32.088 9.11098 32.603 9.03569L37.4943 8.32076C37.6464 8.29852 37.7225 8.28741 37.7887 8.25661C37.8473 8.22933 37.9001 8.19094 37.9442 8.14356C37.9939 8.09004 38.0279 8.02112 38.096 7.88327L40.2826 3.4533Z" fill="#FAC515" stroke="#FAC515" stroke-width="1.5" stroke-linecap="round" stroke-linejoin="round"/>
<rect width="24" height="24" transform="translate(57)" fill="white"/>
<path d="M68.2826 3.4533C68.5131 2.98636 68.6284 2.75289 68.7848 2.6783C68.9209 2.6134 69.0791 2.6134 69.2152 2.6783C69.3716 2.75289 69.4869 2.98636 69.7174 3.4533L71.904 7.88327C71.9721 8.02112 72.0061 8.09004 72.0558 8.14356C72.0999 8.19094 72.1527 8.22933 72.2113 8.25661C72.2775 8.28741 72.3536 8.29852 72.5057 8.32076L77.397 9.03569C77.912 9.11098 78.1696 9.14862 78.2888 9.27442C78.3925 9.38388 78.4412 9.53428 78.4215 9.68376C78.3988 9.85556 78.2124 10.0372 77.8395 10.4004L74.3014 13.8464C74.1911 13.9538 74.136 14.0075 74.1004 14.0714C74.0689 14.128 74.0487 14.1902 74.0409 14.2545C74.0321 14.3271 74.0451 14.403 74.0711 14.5547L74.9059 19.4221C74.994 19.9355 75.038 20.1922 74.9553 20.3445C74.8833 20.477 74.7553 20.57 74.607 20.5975C74.4366 20.6291 74.2061 20.5078 73.7451 20.2654L69.3724 17.9658C69.2361 17.8942 69.168 17.8583 69.0962 17.8443C69.0327 17.8318 68.9673 17.8318 68.9038 17.8443C68.832 17.8583 68.7639 17.8942 68.6276 17.9658L64.2549 20.2654C63.7939 20.5078 63.5634 20.6291 63.393 20.5975C63.2447 20.57 63.1167 20.477 63.0447 20.3445C62.962 20.1922 63.006 19.9355 63.0941 19.4221L63.9289 14.5547C63.9549 14.403 63.9679 14.3271 63.9591 14.2545C63.9513 14.1902 63.9311 14.128 63.8996 14.0714C63.864 14.0075 63.8089 13.9538 63.6986 13.8464L60.1605 10.4004C59.7876 10.0372 59.6012 9.85556 59.5785 9.68376C59.5588 9.53428 59.6075 9.38388 59.7112 9.27442C59.8304 9.14862 60.088 9.11098 60.603 9.03569L65.4943 8.32076C65.6464 8.29852 65.7225 8.28741 65.7887 8.25661C65.8473 8.22933 65.9001 8.19094 65.9442 8.14356C65.9939 8.09004 66.0279 8.02112 66.096 7.88327L68.2826 3.4533Z" fill="#FAC515" stroke="#FAC515" stroke-width="1.5" stroke-linecap="round" stroke-linejoin="round"/>
<rect width="24" height="24" transform="translate(85)" fill="white"/>
<path d="M96.2826 3.4533C96.5131 2.98636 96.6284 2.75289 96.7848 2.6783C96.9209 2.6134 97.0791 2.6134 97.2152 2.6783C97.3716 2.75289 97.4869 2.98636 97.7174 3.4533L99.904 7.88327C99.9721 8.02112 100.006 8.09004 100.056 8.14356C100.1 8.19094 100.153 8.22933 100.211 8.25661C100.278 8.28741 100.354 8.29852 100.506 8.32076L105.397 9.03569C105.912 9.11098 106.17 9.14862 106.289 9.27442C106.392 9.38388 106.441 9.53428 106.421 9.68376C106.399 9.85556 106.212 10.0372 105.839 10.4004L102.301 13.8464C102.191 13.9538 102.136 14.0075 102.1 14.0714C102.069 14.128 102.049 14.1902 102.041 14.2545C102.032 14.3271 102.045 14.403 102.071 14.5547L102.906 19.4221C102.994 19.9355 103.038 20.1922 102.955 20.3445C102.883 20.477 102.755 20.57 102.607 20.5975C102.437 20.6291 102.206 20.5078 101.745 20.2654L97.3724 17.9658C97.2361 17.8942 97.168 17.8583 97.0962 17.8443C97.0327 17.8318 96.9673 17.8318 96.9038 17.8443C96.832 17.8583 96.7639 17.8942 96.6276 17.9658L92.2549 20.2654C91.7939 20.5078 91.5634 20.6291 91.393 20.5975C91.2447 20.57 91.1167 20.477 91.0447 20.3445C90.962 20.1922 91.006 19.9355 91.0941 19.4221L91.9289 14.5547C91.9549 14.403 91.9679 14.3271 91.9591 14.2545C91.9513 14.1902 91.9311 14.128 91.8996 14.0714C91.864 14.0075 91.8089 13.9538 91.6986 13.8464L88.1605 10.4004C87.7876 10.0372 87.6012 9.85556 87.5785 9.68376C87.5588 9.53428 87.6075 9.38388 87.7112 9.27442C87.8304 9.14862 88.088 9.11098 88.603 9.03569L93.4943 8.32076C93.6464 8.29852 93.7225 8.28741 93.7887 8.25661C93.8473 8.22933 93.9001 8.19094 93.9442 8.14356C93.9939 8.09004 94.0279 8.02112 94.096 7.88327L96.2826 3.4533Z" fill="#FAC515" stroke="#FAC515" stroke-width="1.5" stroke-linecap="round" stroke-linejoin="round"/>
<path d="M124.283 3.4533C124.513 2.98636 124.628 2.75289 124.785 2.6783C124.921 2.6134 125.079 2.6134 125.215 2.6783C125.372 2.75289 125.487 2.98636 125.717 3.4533L127.904 7.88327C127.972 8.02112 128.006 8.09004 128.056 8.14356C128.1 8.19094 128.153 8.22933 128.211 8.25661C128.278 8.28741 128.354 8.29852 128.506 8.32076L133.397 9.03569C133.912 9.11098 134.17 9.14862 134.289 9.27442C134.392 9.38388 134.441 9.53428 134.421 9.68376C134.399 9.85556 134.212 10.0372 133.839 10.4004L130.301 13.8464C130.191 13.9538 130.136 14.0075 130.1 14.0714C130.069 14.128 130.049 14.1902 130.041 14.2545C130.032 14.3271 130.045 14.403 130.071 14.5547L130.906 19.4221C130.994 19.9355 131.038 20.1922 130.955 20.3445C130.883 20.477 130.755 20.57 130.607 20.5975C130.437 20.6291 130.206 20.5078 129.745 20.2654L125.372 17.9658C125.236 17.8942 125.168 17.8583 125.096 17.8443C125.033 17.8318 124.967 17.8318 124.904 17.8443C124.832 17.8583 124.764 17.8942 124.628 17.9658L120.255 20.2654C119.794 20.5078 119.563 20.6291 119.393 20.5975C119.245 20.57 119.117 20.477 119.045 20.3445C118.962 20.1922 119.006 19.9355 119.094 19.4221L119.929 14.5547C119.955 14.403 119.968 14.3271 119.959 14.2545C119.951 14.1902 119.931 14.128 119.9 14.0714C119.864 14.0075 119.809 13.9538 119.699 13.8464L116.161 10.4004C115.788 10.0372 115.601 9.85556 115.579 9.68376C115.559 9.53428 115.608 9.38388 115.711 9.27442C115.83 9.14862 116.088 9.11098 116.603 9.03569L121.494 8.32076C121.646 8.29852 121.722 8.28741 121.789 8.25661C121.847 8.22933 121.9 8.19094 121.944 8.14356C121.994 8.09004 122.028 8.02112 122.096 7.88327L124.283 3.4533Z" stroke="#D0D5DD" stroke-width="1.5" stroke-linecap="round" stroke-linejoin="round"/>
</svg>
